<svg xmlns="http://www.w3.org/2000/svg" width="18" height="18" viewBox="0 0 18 18">
  <defs>
    <style>
      .cls-1 {
        fill: #473a3a;
        opacity: 0;
      }

      .cls-2, .cls-3, .cls-5 {
        fill: none;
      }

      .cls-2 {
        stroke: #333;
        stroke-width: 1.5px;
      }

      .cls-4, .cls-6 {
        stroke: none;
      }

      .cls-6 {
        fill: #333;
      }
    </style>
  </defs>
  <g id="组_755" data-name="组 755" transform="translate(-24 -334)">
    <rect id="矩形_691" data-name="矩形 691" class="cls-1" width="18" height="18" transform="translate(24 334)"/>
    <g id="组_659" data-name="组 659" transform="translate(-225 -2861)">
      <g id="矩形_692" data-name="矩形 692" class="cls-2" transform="translate(249 3196)">
        <path class="cls-4" d="M2,0H16a2,2,0,0,1,2,2V6a0,0,0,0,1,0,0H0A0,0,0,0,1,0,6V2A2,2,0,0,1,2,0Z"/>
        <path class="cls-5" d="M2,.75H16A1.25,1.25,0,0,1,17.25,2V4.5a.75.75,0,0,1-.75.75H1.5A.75.75,0,0,1,.75,4.5V2A1.25,1.25,0,0,1,2,.75Z"/>
      </g>
      <g id="矩形_693" data-name="矩形 693" class="cls-2" transform="translate(249 3200.5)">
        <path class="cls-4" d="M0,0H18a0,0,0,0,1,0,0V9.5a2,2,0,0,1-2,2H2a2,2,0,0,1-2-2V0A0,0,0,0,1,0,0Z"/>
        <path class="cls-5" d="M1.5.75h15a.75.75,0,0,1,.75.75v8A1.25,1.25,0,0,1,16,10.75H2A1.25,1.25,0,0,1,.75,9.5v-8A.75.75,0,0,1,1.5.75Z"/>
      </g>
      <g id="路径_438" data-name="路径 438" class="cls-3" transform="translate(258 3205)">
        <path class="cls-4" d="M1,0H6L5,4H0Z"/>
        <path class="cls-6" d="M 2.171159982681274 1.5 L 1.921160221099854 2.5 L 3.828840017318726 2.5 L 4.078840255737305 1.5 L 2.171159982681274 1.5 M 1 0 L 6 0 L 5 4 L 0 4 L 1 0 Z"/>
      </g>
    </g>
  </g>
</svg>
