<svg xmlns="http://www.w3.org/2000/svg" width="18" height="18" viewBox="0 0 18 18">
  <defs>
    <style>
      .cls-1, .cls-3, .cls-5 {
        fill: #333;
      }

      .cls-1 {
        opacity: 0;
      }

      .cls-2 {
        fill: none;
        stroke-linecap: round;
        stroke-linejoin: round;
      }

      .cls-4, .cls-5 {
        stroke: none;
      }
    </style>
  </defs>
  <g id="组_729" data-name="组 729" transform="translate(-4190 -3172)">
    <rect id="矩形_649" data-name="矩形 649" class="cls-1" width="18" height="18" transform="translate(4190 3172)"/>
    <g id="组_625" data-name="组 625" transform="translate(4191 3172)">
      <g id="路径_433" data-name="路径 433" class="cls-2">
        <path class="cls-4" d="M2.667,0H13.333A2.62,2.62,0,0,1,16,2.571V15.429A2.62,2.62,0,0,1,13.333,18L8.509,14.143,2.667,18A2.62,2.62,0,0,1,0,15.429V2.571A2.62,2.62,0,0,1,2.667,0Z"/>
        <path class="cls-5" d="M 2.666669845581055 1.5 C 2.023369789123535 1.5 1.5 1.980640411376953 1.5 2.571430206298828 L 1.5 15.42856979370117 C 1.5 15.90137481689453 1.835184097290039 16.30362701416016 2.298799514770508 16.44543647766113 L 7.682279586791992 12.89107990264893 C 7.933791160583496 12.72502517700195 8.2215576171875 12.64285469055176 8.508583068847656 12.64285469055176 C 8.841136932373047 12.64285469055176 9.172679901123047 12.75320816040039 9.445419311523438 12.97126007080078 L 13.76442241668701 16.42420196533203 C 14.19497776031494 16.26641845703125 14.5 15.87959575653076 14.5 15.42856979370117 L 14.5 2.571430206298828 C 14.5 1.980640411376953 13.97663021087646 1.5 13.33333015441895 1.5 L 2.666669845581055 1.5 M 2.666669845581055 0 L 13.33333015441895 0 C 14.80609035491943 0 16 1.151269912719727 16 2.571430206298828 L 16 15.42856979370117 C 16 16.84873008728027 14.80609035491943 18 13.33333015441895 18 L 8.508749961853027 14.14286041259766 L 2.666669845581055 18 C 1.193909645080566 18 0 16.84873008728027 0 15.42856979370117 L 0 2.571430206298828 C 0 1.151269912719727 1.193909645080566 0 2.666669845581055 0 Z"/>
      </g>
      <g id="组_661" data-name="组 661" transform="translate(0.5 0.7)">
        <rect id="矩形_650" data-name="矩形 650" class="cls-3" width="7" height="1.5" rx="0.75" transform="translate(4 6)"/>
        <rect id="矩形_651" data-name="矩形 651" class="cls-3" width="7" height="1.5" rx="0.75" transform="translate(6.8 10.3) rotate(-90)"/>
      </g>
    </g>
  </g>
</svg>
