<svg xmlns="http://www.w3.org/2000/svg" width="18" height="18.5" viewBox="0 0 18 18.5">
  <defs>
    <style>
      .cls-1, .cls-3 {
        fill: #fff;
      }

      .cls-1 {
        opacity: 0;
      }

      .cls-2, .cls-5 {
        fill: none;
      }

      .cls-2, .cls-3 {
        stroke: #333;
      }

      .cls-2 {
        stroke-width: 1.5px;
      }

      .cls-4 {
        stroke: none;
      }
    </style>
  </defs>
  <g id="组_756" data-name="组 756" transform="translate(-24 -444)">
    <rect id="矩形_694" data-name="矩形 694" class="cls-1" width="18" height="18" transform="translate(24 444)"/>
    <g id="矩形_695" data-name="矩形 695" class="cls-2" transform="translate(30.5 444)">
      <rect class="cls-4" width="5" height="6.5" rx="1"/>
      <rect class="cls-5" x="0.75" y="0.75" width="3.5" height="5" rx="0.25"/>
    </g>
    <g id="矩形_696" data-name="矩形 696" class="cls-2" transform="translate(24 449)">
      <rect class="cls-4" width="18" height="5.5" rx="1"/>
      <rect class="cls-5" x="0.75" y="0.75" width="16.5" height="4" rx="0.25"/>
    </g>
    <g id="矩形_697" data-name="矩形 697" class="cls-2" transform="translate(25 453)">
      <rect class="cls-4" width="16" height="9.5" rx="1"/>
      <rect class="cls-5" x="0.75" y="0.75" width="14.5" height="8" rx="0.25"/>
    </g>
    <g id="组_662" data-name="组 662" transform="translate(-141.7 -2794)">
      <g id="矩形_698" data-name="矩形 698" class="cls-3" transform="translate(171 3251)">
        <rect class="cls-4" width="1.5" height="5" rx="0.75"/>
        <rect class="cls-5" x="0.5" y="0.5" width="0.5" height="4" rx="0.25"/>
      </g>
      <g id="矩形_699" data-name="矩形 699" class="cls-3" transform="translate(174 3251)">
        <rect class="cls-4" width="1.5" height="5" rx="0.75"/>
        <rect class="cls-5" x="0.5" y="0.5" width="0.5" height="4" rx="0.25"/>
      </g>
      <g id="矩形_700" data-name="矩形 700" class="cls-3" transform="translate(177 3251)">
        <rect class="cls-4" width="1.5" height="5" rx="0.75"/>
        <rect class="cls-5" x="0.5" y="0.5" width="0.5" height="4" rx="0.25"/>
      </g>
    </g>
  </g>
</svg>
