<svg xmlns="http://www.w3.org/2000/svg" xmlns:xlink="http://www.w3.org/1999/xlink" width="375" height="208" viewBox="0 0 375 208">
  <defs>
    <style>
      .cls-1 {
        fill: #fff;
      }

      .cls-2 {
        fill: url(#linear-gradient);
      }

      .cls-3 {
        opacity: 0.02;
      }

      .cls-4, .cls-5 {
        fill: #0464e0;
      }

      .cls-4 {
        opacity: 0;
      }

      .cls-6 {
        fill: #68a2ec;
      }
    </style>
    <linearGradient id="linear-gradient" x1="1" y1="0.065" x2="0" y2="1" gradientUnits="objectBoundingBox">
      <stop offset="0" stop-color="#fff" stop-opacity="0.102"/>
      <stop offset="1" stop-color="#0464e0" stop-opacity="0.102"/>
    </linearGradient>
  </defs>
  <g id="组_732" data-name="组 732" transform="translate(-1654 -5237)">
    <path id="减去_6" data-name="减去 6" class="cls-1" d="M191,0C134.652,0,81.666,2.942,41.8,8.286,24.439,10.613,10.375,13.293,0,16.25V208H375V14.435c-18.067-4.3-44.328-7.916-75.943-10.447C266.5,1.379,229.138,0,191,0Z" transform="translate(2029 5445) rotate(180)"/>
    <g id="组_731" data-name="组 731" transform="translate(1654 5237)">
      <path id="减去_4" data-name="减去 4" class="cls-2" d="M191,0C134.652,0,81.666,2.942,41.8,8.286,24.439,10.613,10.375,13.293,0,16.25V208H375V14.435c-18.067-4.3-44.328-7.916-75.943-10.447C266.5,1.379,229.138,0,191,0Z" transform="translate(375 208) rotate(180)"/>
      <g id="组_655" data-name="组 655" class="cls-3" transform="translate(246 82)">
        <rect id="矩形_29" data-name="矩形 29" class="cls-4" width="95" height="94.978" transform="translate(0 0.022)"/>
        <g id="组_3" data-name="组 3" transform="translate(9.175 0)">
          <path id="路径_1" data-name="路径 1" class="cls-5" d="M251.63,695.011H213V773.9l38.63,15.937Z" transform="translate(-172.282 -695.011)"/>
          <path id="路径_2" data-name="路径 2" class="cls-6" d="M268,746.471h21.925v58.651L268,816.971Z" transform="translate(-268 -746.471)"/>
        </g>
      </g>
    </g>
  </g>
</svg>
