<?xml version="1.0" standalone="no"?><!DOCTYPE svg PUBLIC "-//W3C//DTD SVG 1.1//EN" "http://www.w3.org/Graphics/SVG/1.1/DTD/svg11.dtd"><svg t="1605490798629" class="icon" viewBox="0 0 1024 1024" version="1.1" xmlns="http://www.w3.org/2000/svg" p-id="2938" width="48" height="48" xmlns:xlink="http://www.w3.org/1999/xlink"><defs><style type="text/css"></style></defs><path d="M556.544 347.136l-9.216-46.592H338.432v394.752h46.592v-162.304h130.048l9.216 46.592h162.304V347.136h-130.048z" fill="#FFCB99" p-id="2939"></path><path d="M649.216 404.992L640 358.4H431.104v394.752h46.592v-162.304h130.048l9.216 46.592h162.304V404.992h-130.048z" fill="#FF7E00" p-id="2940"></path><path d="M832 699.392h-29.696v-29.696c0-6.656-5.12-11.776-11.776-11.776s-11.776 5.12-11.776 11.776v29.696h-29.696c-6.656 0-11.776 5.12-11.776 11.776 0 6.656 5.12 11.776 11.776 11.776h29.696v29.696c0 6.656 5.12 11.776 11.776 11.776s11.776-5.12 11.776-11.776v-29.696h29.696c6.656 0 11.776-5.12 11.776-11.776 0-6.656-5.12-11.776-11.776-11.776zM825.856 260.096c14.848 14.848 10.24 33.792 6.656 47.616-3.584 13.824-4.096 20.48 0.512 25.6 5.12 5.12 11.264 4.096 25.6 0.512 13.824-3.584 32.768-8.192 47.616 6.656 14.848 14.848 10.24 33.28 6.656 47.104-3.584 13.824-4.608 20.48 0.512 25.6 4.608 4.608 4.608 11.776 0 16.384s-11.776 4.608-16.384 0c-14.848-14.848-10.24-33.28-6.656-47.104 3.584-13.824 4.608-20.48-0.512-25.6s-11.264-4.096-25.6-0.512c-13.824 3.584-32.768 8.192-47.104-6.656-14.848-14.848-10.24-33.792-6.656-47.616 3.584-13.824 4.608-20.48-0.512-25.6s-11.776-4.096-25.6-0.512c-13.824 3.584-32.768 8.192-47.616-6.656-4.608-4.608-4.608-11.776 0-16.384 4.608-4.608 11.776-4.608 16.384 0 5.12 5.12 11.264 4.096 25.6 0.512 13.824-3.072 32.768-7.68 47.104 6.656z" fill="#FFC879" p-id="2941"></path><path d="M212.00896 602.33216l46.336-46.336 46.34624 46.336-46.34112 46.34112z" fill="#FFF7EC" p-id="2942"></path><path d="M637.952 763.904m-32.768 0a32.768 32.768 0 1 0 65.536 0 32.768 32.768 0 1 0-65.536 0Z" fill="#FFF7EC" p-id="2943"></path><path d="M227.328 279.552c-30.72 0-56.32 25.088-56.32 56.32s25.088 56.32 56.32 56.32 56.32-25.088 56.32-56.32-25.088-56.32-56.32-56.32z m0 89.088c-17.92 0-32.768-14.848-32.768-32.768 0-17.92 14.848-32.768 32.768-32.768 17.92 0 32.768 14.848 32.768 32.768 0.512 17.92-14.336 32.768-32.768 32.768z" fill="#FFC879" p-id="2944"></path></svg>